<?xml version="1.0" encoding="UTF-8" standalone="no"?>
<!-- Created with Inkscape (http://www.inkscape.org/) -->

<svg
   width="109.13649mm"
   height="52.963589mm"
   viewBox="0 0 109.13649 52.963589"
   version="1.1"
   id="svg1"
   xml:space="preserve"
   xmlns:inkscape="http://www.inkscape.org/namespaces/inkscape"
   xmlns:sodipodi="http://sodipodi.sourceforge.net/DTD/sodipodi-0.dtd"
   xmlns="http://www.w3.org/2000/svg"
   xmlns:svg="http://www.w3.org/2000/svg"><sodipodi:namedview
     id="namedview1"
     pagecolor="#ffffff"
     bordercolor="#000000"
     borderopacity="0.25"
     inkscape:showpageshadow="2"
     inkscape:pageopacity="0.0"
     inkscape:pagecheckerboard="0"
     inkscape:deskcolor="#d1d1d1"
     inkscape:document-units="mm" /><defs
     id="defs1" /><g
     inkscape:label="Layer 1"
     inkscape:groupmode="layer"
     id="layer1"
     transform="translate(-47.10056,-50.665118)"><path
       style="fill:#ea580c;fill-opacity:1"
       d="m 51.462057,102.38789 c 0,-1.14653 0.0294,-1.19063 0.79375,-1.19063 0.436563,0 0.79375,0.11906 0.79375,0.26458 0,0.14553 -0.238125,0.26459 -0.529167,0.26459 -0.721883,0 -0.671212,0.465 0.06615,0.60702 l 0.595313,0.11466 -0.595313,0.036 c -0.406913,0.0246 -0.595312,0.20349 -0.595312,0.56519 0,0.29105 -0.119063,0.52917 -0.264584,0.52917 -0.14552,0 -0.264583,-0.53578 -0.264583,-1.19062 z m 4.497917,0 c 0,-0.65485 0.119062,-1.19063 0.264583,-1.19063 0.145521,0 0.264584,0.41672 0.264584,0.92604 0,0.74966 0.100793,0.92604 0.529166,0.92604 0.291042,0 0.529167,0.11907 0.529167,0.26459 0,0.14552 -0.357188,0.26458 -0.79375,0.26458 -0.764352,0 -0.79375,-0.0441 -0.79375,-1.19062 z m 5.015409,0.19843 c -0.210409,-0.5457 -0.422843,-1.08148 -0.472075,-1.19062 -0.04923,-0.10914 0.02127,-0.19844 0.156685,-0.19844 0.13541,0 0.364646,0.26545 0.509413,0.58988 l 0.263213,0.58988 0.315695,-0.58988 c 0.173632,-0.32443 0.433626,-0.58988 0.577764,-0.58988 0.144138,0 0.08042,0.35128 -0.141601,0.78061 -0.222018,0.42934 -0.40367,0.96512 -0.40367,1.19063 0,0.73273 -0.413742,0.43367 -0.805424,-0.58218 z m 7.896258,0.67469 c 0.383889,-0.38389 0.423568,-1.53458 0.05292,-1.53458 -0.145521,0 -0.264584,-0.11906 -0.264584,-0.26459 0,-0.14552 0.267891,-0.26458 0.595313,-0.26458 0.529167,0 0.595312,0.13229 0.595312,1.19063 0,1.08713 -0.05635,1.19062 -0.648229,1.19062 -0.504178,0 -0.577673,-0.0705 -0.330729,-0.3175 z m 4.32108,-0.80698 c -0.04184,-1.50977 0.448261,-1.68808 1.090872,-0.39687 l 0.427956,0.85989 0.01692,-0.85989 c 0.02618,-1.33022 0.546088,-1.01535 0.546088,0.33073 0,1.45889 -0.556829,1.60728 -1.241071,0.33073 l -0.460911,-0.8599 -0.172512,0.92604 c -0.164278,0.88184 -0.174175,0.86605 -0.207342,-0.33073 z m 5.786004,0.19844 c 0,-0.64676 -0.119693,-0.92604 -0.396875,-0.92604 -0.218281,0 -0.396875,-0.11906 -0.396875,-0.26459 0,-0.14552 0.416719,-0.26458 0.926041,-0.26458 0.509323,0 0.926042,0.11906 0.926042,0.26458 0,0.14553 -0.119062,0.26459 -0.264583,0.26459 -0.145521,0 -0.264584,0.41672 -0.264584,0.92604 0,0.50932 -0.119062,0.92604 -0.264583,0.92604 -0.145521,0 -0.264583,-0.41672 -0.264583,-0.92604 z m 4.28625,0.60854 c -0.742156,-0.74215 -0.18302,-2.06375 0.873125,-2.06375 0.709205,0 1.190625,0.48142 1.190625,1.19063 0,0.7092 -0.48142,1.19062 -1.190625,1.19062 -0.305594,0 -0.6985,-0.14287 -0.873125,-0.3175 z m 1.482427,-0.84065 c -0.04982,-0.34916 -0.305357,-0.59363 -0.675448,-0.64619 -0.480402,-0.0682 -0.595312,0.0424 -0.595312,0.57327 0,0.36179 0.148828,0.70972 0.330729,0.77317 0.584217,0.20379 1.022442,-0.12266 0.940031,-0.70025 z m 6.931323,-0.0325 c 0,-1.22172 0.0017,-1.22399 0.859896,-1.14125 0.813005,0.0784 0.859896,0.14062 0.859896,1.14125 0,1.00062 -0.04689,1.06285 -0.859896,1.14124 -0.858182,0.0827 -0.859896,0.0805 -0.859896,-1.14124 z m 1.262283,0.44648 c 0.0576,-0.17281 -0.08378,-0.31419 -0.314192,-0.31419 -0.230408,0 -0.418924,0.18851 -0.418924,0.41892 0,0.46724 0.569584,0.38587 0.733116,-0.10473 z m 0.06063,-0.84336 c 0,-0.14552 -0.178594,-0.26458 -0.396875,-0.26458 -0.218281,0 -0.396875,0.11906 -0.396875,0.26458 0,0.14552 0.178594,0.26458 0.396875,0.26458 0.218281,0 0.396875,-0.11906 0.396875,-0.26458 z m 3.439579,0.39688 c 0,-0.65485 0.11907,-1.19063 0.26459,-1.19063 0.14552,0 0.26458,0.23813 0.26458,0.52917 0,0.35278 0.17639,0.52916 0.52917,0.52916 0.35278,0 0.52916,-0.17638 0.52916,-0.52916 0,-0.29104 0.11907,-0.52917 0.26459,-0.52917 0.14552,0 0.26458,0.53578 0.26458,1.19063 0,0.65484 -0.11906,1.19062 -0.26458,1.19062 -0.14552,0 -0.26459,-0.23812 -0.26459,-0.52917 0,-0.35277 -0.17638,-0.52916 -0.52916,-0.52916 -0.35278,0 -0.52917,0.17639 -0.52917,0.52916 0,0.29105 -0.11906,0.52917 -0.26458,0.52917 -0.14552,0 -0.26459,-0.53578 -0.26459,-1.19062 z m 5.203483,1.01423 c -0.27199,-0.27198 -0.20867,-2.20486 0.0722,-2.20486 0.13674,0 0.28556,0.44649 0.33073,0.99219 0.0554,0.66906 0.21137,0.99219 0.47899,0.99219 0.26762,0 0.42362,-0.32313 0.47899,-0.99219 0.0452,-0.5457 0.194,-0.99219 0.33073,-0.99219 0.36146,0 0.30505,1.68981 -0.0689,2.06375 -0.34224,0.34224 -1.33529,0.42859 -1.62277,0.14111 z m 5.37986,-0.74965 c 0,-0.50932 -0.11906,-0.92604 -0.26459,-0.92604 -0.14552,0 -0.26458,-0.11906 -0.26458,-0.26459 0,-0.14552 0.41672,-0.26458 0.92604,-0.26458 0.50933,0 0.92604,0.11906 0.92604,0.26458 0,0.14553 -0.17859,0.26459 -0.39687,0.26459 -0.27718,0 -0.39688,0.27928 -0.39688,0.92604 0,0.50932 -0.11906,0.92604 -0.26458,0.92604 -0.14552,0 -0.26458,-0.41672 -0.26458,-0.92604 z m 4.38312,0.33073 c 0.68386,-2.19525 1.19114,-2.36361 1.79366,-0.59531 0.35904,1.05373 0.21749,1.63983 -0.22366,0.92604 -0.0899,-0.14552 -0.39462,-0.26459 -0.67707,-0.26459 -0.28245,0 -0.51355,0.11907 -0.51355,0.26459 0,0.14552 -0.12709,0.26458 -0.28241,0.26458 -0.17144,0 -0.20954,-0.23394 -0.097,-0.59531 z m 1.16908,-0.79375 c -0.003,-0.48139 -0.0531,-0.51937 -0.26053,-0.19844 -0.33151,0.51296 -0.33151,0.79375 0,0.79375 0.14552,0 0.26276,-0.26789 0.26053,-0.59531 z m 3.70822,0.19844 c 0,-0.99383 0.0832,-1.19063 0.50328,-1.19063 0.32175,0 0.62579,0.31016 0.84292,0.8599 l 0.33964,0.85989 0.0999,-0.85989 c 0.14928,-1.28511 0.59553,-1.03728 0.59553,0.33073 0,0.97464 -0.0873,1.19062 -0.48117,1.19062 -0.27868,0 -0.66126,-0.36187 -0.90912,-0.85989 l -0.42796,-0.8599 -0.0169,0.8599 c -0.0262,1.33021 -0.54608,1.01534 -0.54608,-0.33073 z m 8.59745,0.9236 c -0.10108,-0.16354 -0.096,-0.37873 0.0112,-0.47819 0.10726,-0.0995 0.24816,-0.032 0.31313,0.1499 0.1415,0.39619 0.86777,0.44607 0.86777,0.0596 0,-0.14913 -0.30632,-0.3876 -0.68071,-0.52994 -0.80115,-0.3046 -0.78636,-1.14708 0.0219,-1.25097 0.61344,-0.0788 1.38981,0.35085 1.12051,0.62015 -0.10141,0.10141 -0.34704,0.0494 -0.54585,-0.11561 -0.1988,-0.165 -0.43981,-0.22165 -0.53556,-0.1259 -0.33017,0.33017 -0.17235,0.57851 0.42122,0.66281 0.89121,0.12657 0.80425,1.1187 -0.1073,1.22419 -0.38644,0.0447 -0.78532,-0.0525 -0.88639,-0.21604 z m 8.0713,-0.9236 c 0,-0.65485 0.11906,-1.19063 0.26458,-1.19063 0.14552,0 0.26458,0.23813 0.26458,0.52917 0,0.35278 0.17639,0.52916 0.52917,0.52916 0.35278,0 0.52917,-0.17638 0.52917,-0.52916 0,-0.29104 0.11906,-0.52917 0.26458,-0.52917 0.14552,0 0.26458,0.53578 0.26458,1.19063 0,0.65484 -0.11906,1.19062 -0.26458,1.19062 -0.14552,0 -0.26458,-0.23812 -0.26458,-0.52917 0,-0.35277 -0.17639,-0.52916 -0.52917,-0.52916 -0.35278,0 -0.52917,0.17639 -0.52917,0.52916 0,0.29105 -0.11906,0.52917 -0.26458,0.52917 -0.14552,0 -0.26458,-0.53578 -0.26458,-1.19062 z m 5.02708,0 c 0,-1.14653 0.0294,-1.19063 0.79375,-1.19063 0.43656,0 0.79375,0.11906 0.79375,0.26458 0,0.14553 -0.23813,0.26459 -0.52917,0.26459 -0.72188,0 -0.67121,0.465 0.0661,0.60702 l 0.59531,0.11466 -0.59531,0.036 c -0.72646,0.044 -0.80186,0.56519 -0.0818,0.56519 0.28245,0 0.58713,0.11907 0.67707,0.26459 0.0973,0.15746 -0.21774,0.26458 -0.77813,0.26458 -0.93965,0 -0.94166,-0.003 -0.94166,-1.19062 z m 4.94039,-0.0137 c 0.27844,-0.81717 0.54125,-1.17867 0.81752,-1.12448 0.43172,0.0847 1.24145,2.0421 0.95379,2.30571 -0.0933,0.0855 -0.22272,0.007 -0.28768,-0.17534 -0.14097,-0.39471 -1.03275,-0.44136 -1.26465,-0.0661 -0.44356,0.71769 -0.58171,0.12481 -0.21898,-0.93975 z m 1.14097,0.21214 c -0.002,-0.10914 -0.11946,-0.37703 -0.26053,-0.59531 -0.2074,-0.32093 -0.25725,-0.28295 -0.26053,0.19844 -0.002,0.32742 0.11501,0.59531 0.26053,0.59531 0.14552,0 0.26276,-0.0893 0.26053,-0.19844 z m 3.70822,-0.2152 c 0,-1.2028 0.003,-1.20707 0.8599,-1.12448 0.81052,0.0781 0.86352,0.14748 0.92304,1.20739 0.0347,0.61847 -0.0546,1.12448 -0.19844,1.12448 -0.14387,0 -0.26158,-0.17859 -0.26158,-0.39687 0,-0.21829 -0.17859,-0.39688 -0.39688,-0.39688 -0.21828,0 -0.39687,0.17859 -0.39687,0.39688 0,0.21828 -0.11906,0.39687 -0.26458,0.39687 -0.14552,0 -0.26459,-0.54332 -0.26459,-1.20739 z m 1.32292,-0.38011 c 0,-0.14552 -0.17859,-0.26458 -0.39688,-0.26458 -0.21828,0 -0.39687,0.11906 -0.39687,0.26458 0,0.14552 0.17859,0.26458 0.39687,0.26458 0.21829,0 0.39688,-0.11906 0.39688,-0.26458 z m 4.23333,0.66146 c 0,-0.64676 -0.11969,-0.92604 -0.39687,-0.92604 -0.21828,0 -0.39688,-0.11906 -0.39688,-0.26459 0,-0.14552 0.47625,-0.26458 1.05834,-0.26458 0.58208,0 1.05833,0.11906 1.05833,0.26458 0,0.14553 -0.17859,0.26459 -0.39687,0.26459 -0.27719,0 -0.39688,0.27928 -0.39688,0.92604 0,0.50932 -0.11906,0.92604 -0.26458,0.92604 -0.14552,0 -0.26459,-0.41672 -0.26459,-0.92604 z m -31.94183,-0.92604 c -0.0219,-0.29104 0.0718,-0.52917 0.20828,-0.52917 0.13647,0 0.24814,0.23813 0.24814,0.52917 0,0.29104 -0.0937,0.52916 -0.20828,0.52916 -0.11456,0 -0.22622,-0.23812 -0.24814,-0.52916 z M 48.005646,91.61576 c -0.312621,-1.04973 -0.671903,-2.18082 -0.798405,-2.51355 -0.197503,-0.51947 -0.145616,-0.60495 0.367199,-0.60495 0.42902,0 0.611131,0.1683 0.646663,0.59764 0.0272,0.32869 0.214034,1.07283 0.415178,1.65364 l 0.365717,1.05601 0.421649,-1.438 c 0.231908,-0.7909 0.361676,-1.53504 0.288373,-1.65364 -0.0733,-0.11861 0.178434,-0.21565 0.559412,-0.21565 0.380979,0 0.630009,0.10142 0.5534,0.22537 -0.07661,0.12396 0.05932,0.92354 0.302066,1.77684 l 0.441353,1.55147 0.462802,-1.55899 c 0.254541,-0.85744 0.402214,-1.65702 0.328163,-1.77684 -0.07405,-0.11982 0.145998,-0.21785 0.488999,-0.21785 h 0.623638 l -0.794006,2.51354 c -0.563288,1.78317 -0.915807,2.51354 -1.213177,2.51354 -0.230544,0 -0.441312,-0.20836 -0.468373,-0.46302 -0.02706,-0.25466 -0.213049,-0.99433 -0.413305,-1.64371 l -0.364102,-1.18069 -0.358365,1.44527 c -0.197101,0.79491 -0.334107,1.53458 -0.304458,1.64372 0.02965,0.10914 -0.179177,0.19843 -0.464056,0.19843 -0.413828,0 -0.632239,-0.38371 -1.086365,-1.90858 z m 6.49912,-0.20808 c 0,-1.94028 0.0441,-2.11667 0.529166,-2.11667 0.48507,0 0.529167,0.17639 0.529167,2.11667 0,1.94027 -0.0441,2.11666 -0.529167,2.11666 -0.485069,0 -0.529166,-0.17639 -0.529166,-2.11666 z m 2.513541,0 c 0,-1.83959 0.06061,-2.11663 0.463021,-2.1164 0.281206,1.6e-4 0.774704,0.54561 1.256771,1.38906 l 0.79375,1.3888 0.07997,-1.38907 c 0.05753,-0.99922 0.187475,-1.38906 0.463021,-1.38906 0.302421,0 0.383048,0.44553 0.383048,2.11667 0,1.84219 -0.06024,2.11666 -0.464579,2.11666 -0.255519,0 -0.613834,-0.32742 -0.796257,-0.7276 -0.182423,-0.40018 -0.566028,-1.02526 -0.852455,-1.38906 l -0.520776,-0.66146 -0.0059,1.38906 c -0.0045,1.05572 -0.101125,1.38906 -0.402759,1.38906 -0.319705,0 -0.396875,-0.41157 -0.396875,-2.11666 z m 5.073204,1.5043 c -1.391986,-1.4817 -0.203474,-3.84455 1.772517,-3.52389 1.115611,0.18104 1.208303,0.27543 0.859495,0.87526 -0.154435,0.26558 -0.284411,0.34793 -0.288836,0.183 -0.01302,-0.4852 -0.986902,-0.59937 -1.57843,-0.18505 -0.657619,0.46062 -0.728528,1.72008 -0.130509,2.3181 0.455988,0.45599 0.655573,0.49571 1.282378,0.25518 0.599554,-0.23007 0.51726,-0.89774 -0.110652,-0.89774 -0.291041,0 -0.529166,-0.11906 -0.529166,-0.26458 0,-0.14552 0.416718,-0.26458 0.926041,-0.26458 0.850104,0 0.926042,0.0643 0.926042,0.78444 0,1.38553 -2.058572,1.85915 -3.12888,0.71986 z m 4.630807,0.42624 c -0.297937,-0.077 -0.424424,-0.27595 -0.330729,-0.52012 0.08344,-0.21745 0.151719,-0.45367 0.151719,-0.52492 0,-0.0712 0.187098,0.0575 0.415773,0.28622 0.516371,0.51637 1.27219,0.53546 1.681344,0.0425 0.351052,-0.42299 0.269829,-0.49224 -1.092288,-0.9312 -1.18707,-0.38255 -1.521665,-1.1532 -0.831702,-1.91561 0.38072,-0.42069 0.704414,-0.50699 1.500907,-0.40016 1.142111,0.15319 1.364511,0.2885 1.121218,0.68216 -0.113796,0.18412 -0.393694,0.18632 -0.865871,0.007 -0.383745,-0.1459 -0.85578,-0.20462 -1.048967,-0.13048 -0.693016,0.26593 -0.330971,0.83617 0.773232,1.21788 0.827333,0.286 1.147325,0.54988 1.210935,0.99859 0.165057,1.16434 -0.920573,1.64473 -2.685571,1.18838 z m 7.185754,-1.53311 c 0.0875,-1.69667 0.07931,-1.72035 -0.595313,-1.72035 -0.431642,0 -0.684034,-0.14644 -0.684034,-0.39687 0,-0.30869 0.352777,-0.39688 1.5875,-0.39688 1.234722,0 1.5875,0.0882 1.5875,0.39688 0,0.22048 -0.235186,0.39687 -0.529167,0.39687 -0.474893,0 -0.529167,0.17639 -0.529167,1.71979 0,1.4613 -0.06959,1.71988 -0.463021,1.72035 -0.402638,4.8e-4 -0.45145,-0.2238 -0.374298,-1.71979 z m 3.218569,1.19007 c -0.80913,-0.80913 -0.721463,-2.45617 0.167973,-3.1558 0.867254,-0.68218 1.705246,-0.69803 2.508682,-0.0474 0.874589,0.7082 0.874589,2.52329 0,3.23149 -0.804359,0.65133 -2.009799,0.63861 -2.676655,-0.0282 z m 2.233956,-0.58804 c 0.552954,-0.78945 0.518653,-1.42185 -0.111288,-2.0518 -0.888973,-0.88897 -1.846917,-0.24951 -1.854033,1.23763 -0.0064,1.34101 1.235846,1.85564 1.965321,0.81417 z m 4.51292,-1.39634 c 0,-2.33709 0.03715,-2.51355 0.529166,-2.51371 0.43514,-1.5e-4 0.529167,0.17615 0.529167,0.99218 0,0.95575 0.03661,0.9954 0.992188,1.07448 l 0.992187,0.0821 v -1.0743 c 0,-0.89792 0.08688,-1.07431 0.529167,-1.07431 0.492032,0 0.529166,0.17639 0.529166,2.51354 0,2.33715 -0.03713,2.51354 -0.529166,2.51354 -0.45181,0 -0.529167,-0.17639 -0.529167,-1.20659 v -1.2066 l -0.992187,0.0821 c -0.978061,0.081 -0.992188,0.0981 -0.992188,1.20694 0,0.94854 -0.08293,1.12476 -0.529167,1.12448 -0.492008,-3.2e-4 -0.529166,-0.17685 -0.529166,-2.51389 z m 5.55625,0.39688 c 0,-1.83949 0.06063,-2.11667 0.463021,-2.11667 0.402387,0 0.463021,0.27718 0.463021,2.11667 0,1.83948 -0.06063,2.11666 -0.463021,2.11666 -0.402387,0 -0.463021,-0.27718 -0.463021,-2.11666 z m 2.513542,0 c 0,-2.04107 0.02205,-2.11667 0.617361,-2.11667 0.339548,0 0.620032,0.14883 0.623297,0.33073 0.0033,0.1819 0.214486,0.80698 0.469381,1.38906 l 0.463444,1.05834 0.481136,-1.05834 c 0.264625,-0.58208 0.489966,-1.20716 0.500758,-1.38906 0.01079,-0.1819 0.287513,-0.33073 0.614935,-0.33073 0.56775,0 0.59531,0.098 0.59531,2.11667 0,1.70488 -0.0772,2.11676 -0.39687,2.11715 -0.31669,3.8e-4 -0.385159,-0.33375 -0.338882,-1.65365 l 0.05799,-1.65413 -0.819401,1.71979 -0.819404,1.7198 -0.561508,-1.45521 -0.561508,-1.45521 -0.07997,1.38906 c -0.05753,0.99922 -0.187475,1.38906 -0.46302,1.38906 -0.302421,0 -0.383048,-0.44553 -0.383049,-2.11666 z m 5.352522,1.78593 c 0.0646,-0.1819 0.39702,-1.1344 0.73869,-2.11666 0.85004,-2.44373 1.27506,-2.37875 2.163319,0.33073 0.66151,2.01783 0.67031,2.11666 0.18844,2.11666 -0.32908,0 -0.505469,-0.18465 -0.505469,-0.52916 0,-0.41514 -0.17639,-0.52917 -0.81852,-0.52917 -0.59601,0 -0.85614,0.14386 -0.9569,0.52917 -0.0761,0.29104 -0.31583,0.52916 -0.53271,0.52916 -0.21687,0 -0.34146,-0.14882 -0.27685,-0.33073 z m 2.05176,-1.85208 c -0.002,-0.32742 -0.10477,-0.7542 -0.22788,-0.94841 -0.16717,-0.26372 -0.26568,-0.19676 -0.38921,0.26459 -0.25897,0.96719 -0.20428,1.27913 0.22427,1.27913 0.23638,0 0.39523,-0.24073 0.39282,-0.59531 z m 2.517589,0.0661 c 0,-1.83949 0.0606,-2.11667 0.46302,-2.11667 0.39756,0 0.46302,0.26596 0.46302,1.88103 v 1.88103 l 0.92605,-0.10811 c 0.63862,-0.0746 0.92604,-10e-4 0.92604,0.23564 0,0.23829 -0.42615,0.34374 -1.38906,0.34374 h -1.38907 z m 3.36815,1.78593 c 0.0646,-0.1819 0.39702,-1.1344 0.73869,-2.11666 0.85004,-2.44373 1.27506,-2.37875 2.16332,0.33073 0.66151,2.01783 0.67031,2.11666 0.18844,2.11666 -0.32908,0 -0.50547,-0.18465 -0.50547,-0.52916 0,-0.41514 -0.17639,-0.52917 -0.81852,-0.52917 -0.59601,0 -0.85614,0.14386 -0.9569,0.52917 -0.0761,0.29104 -0.31583,0.52916 -0.53271,0.52916 -0.21687,0 -0.34146,-0.14882 -0.27685,-0.33073 z m 2.05176,-1.85208 c -0.002,-0.32742 -0.10477,-0.7542 -0.22788,-0.94841 -0.16717,-0.26372 -0.26568,-0.19676 -0.38921,0.26459 -0.25897,0.96719 -0.20427,1.27913 0.22427,1.27913 0.23638,0 0.39523,-0.24073 0.39282,-0.59531 z m 3.6565,1.26966 c 0.0811,-0.69503 -0.0874,-1.20064 -0.70564,-2.11667 l -0.81224,-1.20351 h 0.66812 c 0.36747,0 0.61088,0.0926 0.54091,0.20584 -0.07,0.1132 0.0819,0.48307 0.3375,0.82191 l 0.46471,0.61608 0.34044,-0.82192 c 0.21323,-0.51478 0.52975,-0.82191 0.84706,-0.82191 0.46972,0 0.45775,0.0719 -0.16439,0.98746 -0.45922,0.67579 -0.671,1.34387 -0.671,2.11667 0,0.91081 -0.0921,1.1292 -0.47604,1.1292 -0.38697,0 -0.45609,-0.17085 -0.36943,-0.91315 z m 2.7584,0.58242 c 0.0646,-0.1819 0.39702,-1.1344 0.7387,-2.11666 0.85004,-2.44373 1.27506,-2.37875 2.16331,0.33073 0.66152,2.01783 0.67032,2.11666 0.18845,2.11666 -0.32909,0 -0.50547,-0.18465 -0.50547,-0.52916 0,-0.41514 -0.17639,-0.52917 -0.81853,-0.52917 -0.596,0 -0.85613,0.14386 -0.9569,0.52917 -0.0761,0.29104 -0.31582,0.52916 -0.5327,0.52916 -0.21688,0 -0.34146,-0.14882 -0.27686,-0.33073 z m 2.05177,-1.85208 c -0.002,-0.32742 -0.10478,-0.7542 -0.22788,-0.94841 -0.16717,-0.26372 -0.26568,-0.19676 -0.38921,0.26459 -0.25897,0.96719 -0.20428,1.27913 0.22426,1.27913 0.23639,0 0.39524,-0.24073 0.39283,-0.59531 z m 2.3853,0.0661 c 0,-2.09441 0.007,-2.11667 0.67707,-2.11667 0.37239,0 0.62532,0.0893 0.56206,0.19844 -0.0633,0.10914 0.22512,0.73422 0.64085,1.38906 l 0.75586,1.19063 0.005,-1.38907 c 0.004,-1.14462 0.0865,-1.38906 0.46801,-1.38906 0.40239,0 0.46302,0.27718 0.46302,2.11667 0,1.79318 -0.0669,2.11666 -0.43788,2.11666 -0.24083,0 -0.74826,-0.52962 -1.12761,-1.17695 -1.01684,-1.73509 -1.28484,-1.77584 -1.17423,-0.17856 0.0797,1.1507 0.0238,1.35582 -0.36913,1.35568 -0.40237,-1.4e-4 -0.46302,-0.27741 -0.46302,-2.11683 z m 7.14375,-0.39688 c 0,-2.33715 0.0371,-2.51354 0.52917,-2.51354 0.43382,0 0.53045,0.17878 0.53632,0.99219 l 0.007,0.99219 0.92244,-0.99219 c 0.52394,-0.56355 1.17271,-0.99219 1.50175,-0.99219 0.52549,0 0.48818,0.0933 -0.40166,1.0046 l -0.98097,1.0046 0.74281,1.17821 c 0.40855,0.64802 0.83284,1.32704 0.94289,1.50894 0.13758,0.22743 0.009,0.32843 -0.41086,0.32337 -0.44601,-0.005 -0.75745,-0.29845 -1.15372,-1.08565 -0.70791,-1.40627 -1.02595,-1.41516 -1.12606,-0.0315 -0.0658,0.90908 -0.17982,1.12448 -0.59532,1.12448 -0.47281,0 -0.51395,-0.20119 -0.51395,-2.51354 z m 5.02708,0.39688 c 0,-1.83949 0.0606,-2.11667 0.46302,-2.11667 0.40239,0 0.46302,0.27718 0.46302,2.11667 0,1.83948 -0.0606,2.11666 -0.46302,2.11666 -0.40238,0 -0.46302,-0.27718 -0.46302,-2.11666 z m 2.38125,0 c 0,-2.09441 0.007,-2.11667 0.67708,-2.11667 0.37239,0 0.62531,0.0893 0.56205,0.19844 -0.0632,0.10914 0.22513,0.73422 0.64085,1.38906 l 0.75586,1.19063 0.005,-1.38907 c 0.004,-1.14462 0.0865,-1.38906 0.46802,-1.38906 0.40238,0 0.46302,0.27718 0.46302,2.11667 0,1.79318 -0.0669,2.11666 -0.43788,2.11666 -0.24084,0 -0.74826,-0.52962 -1.12762,-1.17695 -1.01683,-1.73509 -1.28484,-1.77584 -1.17423,-0.17856 0.0797,1.1507 0.0238,1.35582 -0.36913,1.35568 -0.40237,-1.4e-4 -0.46302,-0.27741 -0.46302,-2.11683 z m 5.26085,1.61574 c -0.47129,-0.38163 -0.61861,-0.76641 -0.61861,-1.61574 0,-0.84934 0.14732,-1.23412 0.61861,-1.61575 0.91611,-0.74182 3.19309,-0.54278 2.71116,0.237 -0.15768,0.25513 -0.38947,0.27295 -0.9211,0.0708 -0.5843,-0.22215 -0.80349,-0.177 -1.23482,0.25433 -0.67412,0.67412 -0.66655,1.44063 0.021,2.12819 0.62817,0.62816 1.39229,0.58524 1.52145,-0.0855 0.0612,-0.3175 -0.0813,-0.45999 -0.45998,-0.45999 -0.30171,0 -0.54857,-0.11906 -0.54857,-0.26458 0,-0.14552 0.41672,-0.26458 0.92604,-0.26458 0.85011,0 0.92605,0.0643 0.92605,0.78444 0,1.31381 -1.73855,1.80519 -2.94124,0.8313 z m 4.26415,-1.61574 v -2.11667 h 1.15495 c 1.63774,0 2.54922,0.76368 2.54922,2.13587 0,1.4846 -0.69579,2.09746 -2.38125,2.09746 h -1.32292 z m 2.70528,0.97121 c 0.30526,-0.47989 0.24022,-1.62405 -0.11236,-1.97663 -0.17463,-0.17462 -0.59134,-0.3175 -0.92604,-0.3175 -0.56267,0 -0.60854,0.11187 -0.60854,1.48389 v 1.48389 l 0.72495,-0.18195 c 0.39872,-0.10007 0.81362,-0.32134 0.92199,-0.4917 z m 2.55557,0.64453 c -0.47129,-0.38163 -0.61861,-0.76641 -0.61861,-1.61574 0,-1.89104 1.65919,-2.72311 3.12729,-1.5683 0.53189,0.41839 0.69714,0.78375 0.69714,1.54138 0,1.82224 -1.82759,2.75869 -3.20582,1.64266 z m 1.9963,-0.44402 c 0.60902,-0.60902 0.52649,-1.85792 -0.1543,-2.33476 -1.18434,-0.82954 -2.29363,0.78419 -1.43737,2.09101 0.49752,0.75931 0.99927,0.83615 1.59167,0.24375 z m 2.26785,-1.17172 c 0,-2.08139 0.011,-2.11667 0.66146,-2.11667 0.38552,0 0.66146,0.15209 0.66146,0.36456 0,0.20051 0.19141,0.82268 0.42536,1.3826 l 0.42537,1.01804 0.48958,-0.91958 c 0.26928,-0.50577 0.49458,-1.12794 0.50068,-1.3826 0.008,-0.31454 0.22321,-0.46302 0.67255,-0.46302 0.65044,0 0.66146,0.0353 0.66146,2.11667 0,1.8393 -0.0607,2.11673 -0.46302,2.11715 -0.40138,4.1e-4 -0.45086,-0.21973 -0.37164,-1.65365 0.0503,-0.90977 0.0331,-1.5946 -0.038,-1.52184 -0.0712,0.0728 -0.43024,0.84667 -0.79789,1.7198 -0.63624,1.51099 -0.6811,1.55562 -0.93065,0.92604 -0.14421,-0.3638 -0.4467,-1.07818 -0.6722,-1.5875 l -0.41,-0.92604 -0.0104,1.52135 c -0.008,1.17132 -0.10167,1.52135 -0.40723,1.52135 -0.31971,0 -0.39688,-0.41157 -0.39688,-2.11666 z m -34.925,-9.89888 c -1.0914,-0.19437 -3.29406,-0.71317 -4.89479,-1.1529 -18.065391,-4.96265 -32.950605,-5.61307 -43.992513,-1.92231 -2.75584,0.92115 -2.318264,0.45779 1.130012,-1.19658 4.429539,-2.12514 8.917434,-3.16341 15.49826,-3.5855 8.734041,-0.5602 17.922221,0.75463 28.951741,4.14301 1.60073,0.49175 3.98198,1.08081 5.29167,1.30901 3.08467,0.53747 7.90822,0.54839 10.45104,0.0237 2.59865,-0.53625 5.82872,-2.15605 7.79422,-3.9086 l 1.57652,-1.40572 -0.84538,1.23317 c -1.8534,2.70357 -5.48938,5.07815 -9.4514,6.17251 -2.15854,0.59621 -8.84449,0.76482 -11.50938,0.29024 z m 5.02709,-5.20458 c -2.161,-1.87087 -2.98379,-2.35904 -3.97606,-2.35904 -1.2463,0 -1.60627,0.42806 -1.40467,1.67037 0.27293,1.68189 -0.34788,1.08651 -0.81782,-0.78431 -0.24312,-0.96787 -0.61478,-2.0064 -0.82591,-2.30783 -0.36941,-0.52741 -0.38388,-0.51593 -0.38388,0.30456 0,0.46894 -0.0957,0.85262 -0.21268,0.85262 -0.11697,0 -0.62299,-0.42337 -1.12448,-0.94083 -1.2595,-1.29962 -2.97414,-2.35361 -5.152,-3.16695 -2.99284,-1.11771 -7.15162,-3.70626 -8.007469,-4.9841 -0.63019,-0.94092 -0.88053,-1.10448 -1.78334,-1.1651 -2.46991,-0.16585 -2.46434,-0.13177 -0.38977,-2.38321 2.15387,-2.33751 2.668939,-2.68328 4.016489,-2.69627 0.70758,-0.007 0.99977,-0.1356 1.07176,-0.47239 0.17897,-0.83727 -0.27625,-2.25457 -0.93607,-2.91439 l -0.64825,-0.64825 -1.15616,1.24847 c -0.635879,0.68666 -1.289979,1.49313 -1.453549,1.79216 -0.16357,0.29904 -0.74275,0.85136 -1.28707,1.22739 -0.61702,0.42624 -1.53468,1.58033 -2.437042,3.06493 -1.661721,2.73391 -2.54043,3.75182 -3.624461,4.19864 l -0.766803,0.31606 1.692845,0.8895 c 3.615461,1.89975 6.489191,4.10906 7.87347,6.05311 l 0.5619,0.78911 -0.857719,-0.201 c -0.47175,-0.11054 -1.70668,-0.72887 -2.7443,-1.37406 -2.866346,-1.78228 -3.61093,-1.96234 -5.9562,-1.44036 -1.070744,0.23831 -2.287839,0.61031 -2.704655,0.82667 -0.472835,0.24543 -1.501607,0.39337 -2.735499,0.39337 h -1.977652 l 0.717682,-0.85291 0.717681,-0.85292 -1.02489,-0.88999 c -0.56369,-0.48949 -1.251785,-1.01276 -1.5291,-1.16281 -0.478305,-0.25881 -0.496164,-0.18626 -0.347618,1.41218 l 0.15659,1.68499 -0.854148,0.0176 c -0.469781,0.01 -1.225876,0.29239 -1.680211,0.6283 -0.527499,0.38999 -1.240687,0.62566 -1.973234,0.65202 -0.630944,0.0227 -1.407234,0.18646 -1.725089,0.3639 -0.785689,0.43858 -1.406457,0.4058 -1.406457,-0.0743 0,-0.5773 -0.147869,-0.51937 -2.026314,0.79375 -0.936763,0.65485 -1.784564,1.19063 -1.884002,1.19063 -0.09944,0 0.991944,-1.17716 2.425295,-2.61591 2.418092,-2.4272 2.698289,-2.62814 3.884134,-2.78544 1.170065,-0.15522 1.417093,-0.326 2.923883,-2.02141 0.905212,-1.01852 1.739714,-1.8189 1.854448,-1.77862 0.114734,0.0403 1.056342,0.83326 2.092463,1.76215 l 1.883856,1.68891 0.838213,-1.02745 c 1.937976,-2.37548 3.028185,-3.3759 4.273786,-3.9218 1.222469,-0.53577 1.447547,-0.79249 3.04434,-3.4723 1.203495,-2.01976 1.964008,-3.01362 2.518028,-3.29063 0.63136,-0.31568 0.77696,-0.54222 0.71168,-1.10729 -0.0664,-0.57469 0.35463,-1.19393 2.20362,-3.24115 1.257129,-1.3919 2.365619,-2.52922 2.463309,-2.52737 0.0977,0.002 0.83248,1.27593 1.63284,2.83129 1.36597,2.6545 1.56068,2.89822 3.175,3.97425 2.46951,1.64604 2.77027,2.01324 4.74402,5.79199 1.56021,2.98705 1.93477,3.50935 3.04253,4.24266 0.69481,0.45995 1.61938,1.17432 2.05461,1.5875 0.84015,0.79759 6.56301,7.68723 6.56301,7.90108 0,0.29779 -0.45817,0.0589 -1.32291,-0.68975 z m -6.35,-6.81449 c 0,-0.12216 -0.27112,-0.34564 -0.60249,-0.49662 -1.11446,-0.50779 -2.27895,-1.68005 -3.51327,-3.53673 -0.81347,-1.22364 -1.55222,-2.00802 -2.19344,-2.32894 -1.10972,-0.5554 -2.87974,-0.88905 -3.07139,-0.57897 -0.1932,0.31262 2.5774,3.27569 4.12556,4.41214 1.52484,1.11934 4.42503,2.73615 4.9243,2.74522 0.1819,0.003 0.33073,-0.0939 0.33073,-0.2161 z m 13.17835,3.51637 c -0.0812,-0.13835 -0.23092,-0.96592 -0.33264,-1.83905 -0.32233,-2.76685 -0.3486,-2.81676 -1.43469,-2.72603 -0.78541,0.0656 -1.03954,0.23949 -1.39745,0.95617 -0.61946,1.24038 -0.88877,0.63025 -0.81537,-1.84724 l 0.0601,-2.0296 -1.35057,-0.44859 c -0.74281,-0.24672 -1.82279,-0.44207 -2.39995,-0.43411 l -1.04938,0.0145 0.45719,-0.7113 c 0.25145,-0.39121 0.61753,-0.94614 0.81349,-1.23318 0.476,-0.69721 0.44098,-1.20479 -0.13473,-1.95334 l -0.47927,-0.62314 -1.0362,0.53125 c -1.22126,0.62612 -2.09655,1.51017 -2.7094,2.73649 -0.52811,1.05678 -1.53867,1.44185 -1.22977,0.46861 0.16137,-0.50844 0.0338,-0.4531 -0.82642,0.35844 -0.55949,0.52785 -1.06751,0.90946 -1.12894,0.84803 -0.0614,-0.0614 0.51197,-1.06164 1.27422,-2.2227 1.04805,-1.59637 1.59485,-2.17996 2.24293,-2.39385 0.895,-0.29538 1.98596,-1.30474 2.50878,-2.32113 0.16842,-0.32742 0.39962,-0.59531 0.51378,-0.59531 0.11416,0 0.78818,0.90199 1.49783,2.00443 1.26319,1.96238 1.90506,2.50723 3.36646,2.85758 0.52357,0.12551 1.07034,0.70524 1.96902,2.08765 2.02852,3.12044 4.87432,5.75049 7.79076,7.20013 1.72041,0.85514 2.19634,1.18084 1.55392,1.06344 -1.50692,-0.2754 -3.46963,-0.94535 -5.07816,-1.73339 l -1.50629,-0.73795 -0.49579,1.48738 c -0.27269,0.81806 -0.56226,1.37418 -0.64349,1.23582 z"
       id="path1" /></g></svg>
