<?xml version="1.0" encoding="UTF-8" standalone="no"?>
<!-- Created with Inkscape (http://www.inkscape.org/) -->

<svg
   width="73.084213mm"
   height="31.233156mm"
   viewBox="0 0 73.084213 31.233156"
   version="1.1"
   id="svg1"
   xml:space="preserve"
   xmlns="http://www.w3.org/2000/svg"
   xmlns:svg="http://www.w3.org/2000/svg"><defs
     id="defs1" /><g
     id="layer1"
     transform="translate(-130.29688,-154.33796)"><path
       style="fill:#ea580c;fill-opacity:1"
       d="m 181.24664,185.16185 c -1.06076,-0.19379 -2.96576,-0.64874 -4.23333,-1.011 -10.04666,-2.87123 -19.03782,-4.22656 -28.10154,-4.23603 l -5.42396,-0.006 -2.94259,0.45406 c -3.462,0.5342 -6.49683,1.29411 -8.68625,2.175 -1.99044,0.80083 -2.05364,0.7228 -0.3328,-0.41088 4.24184,-2.79449 11.5292,-4.63723 19.50226,-4.93151 l 4.36563,-0.16112 4.23333,0.45104 c 5.74479,0.61208 10.94118,1.66054 16.93635,3.41719 2.76324,0.80967 6.2147,1.66745 7.6699,1.90619 l 2.64584,0.43407 3.43958,-0.13431 3.43958,-0.13431 1.85209,-0.57949 c 2.59278,-0.81125 4.60873,-1.93887 6.32979,-3.54058 1.53498,-1.42855 1.777,-1.52623 1.03944,-0.41952 -2.17555,3.26439 -6.22431,5.78424 -10.81856,6.73321 l -1.95232,0.40326 -3.51689,-0.0286 c -1.93428,-0.0157 -4.38478,-0.18718 -5.44555,-0.38098 z m 4.65939,-5.80817 -1.66865,-1.45528 -0.83876,-0.15735 c -0.46132,-0.0866 -1.10131,-0.074 -1.42221,0.0278 l -0.58345,0.18518 0.13107,1.16287 0.13107,1.16287 h -0.35417 -0.35418 l -0.28408,-1.12448 c -0.6732,-2.66468 -1.56211,-4.41522 -1.24278,-2.4474 0.18911,1.16532 -0.0132,1.16239 -1.15361,-0.0167 -1.2966,-1.34067 -3.4413,-2.70434 -5.21057,-3.31306 -0.83598,-0.28762 -2.64379,-1.14436 -4.01737,-1.90386 -2.29774,-1.27053 -3.08414,-1.8978 -4.70514,-3.7531 l -0.58586,-0.67053 h -1.46466 c -1.84121,0 -1.84996,0.0382 0.59516,-2.59547 l 2.04122,-2.19859 1.32292,-0.18503 1.32291,-0.18503 0.0881,-0.61985 c 0.12582,-0.88551 -0.12348,-1.69442 -0.77908,-2.52787 l -0.5702,-0.7249 -1.1397,1.11852 c -0.62683,0.61519 -1.27164,1.42807 -1.4329,1.80639 -0.16127,0.37833 -0.79338,0.99639 -1.40471,1.37347 l -1.11149,0.6856 -0.90018,1.56336 c -0.4951,0.85984 -1.2924,2.17701 -1.77178,2.92703 l -0.87161,1.36368 -1.05888,0.46718 -1.05889,0.46717 2.69838,1.51867 c 2.93535,1.65203 6.01278,4.1084 6.84987,5.46748 l 0.52863,0.85828 -0.88485,-0.17328 c -0.48667,-0.0953 -1.2431,-0.44399 -1.68096,-0.77487 -0.43786,-0.33088 -1.71116,-1.03616 -2.82957,-1.56729 l -2.03347,-0.96569 -2.00211,0.41405 c -1.10116,0.22772 -2.38769,0.62101 -2.85897,0.87398 l -0.85686,0.45993 -2.02225,0.0168 -2.02226,0.0168 0.77419,-0.93453 0.77419,-0.93452 -0.73631,-0.60879 c -0.40497,-0.33483 -1.07638,-0.85796 -1.49201,-1.1625 l -0.75571,-0.55372 0.11346,1.2948 c 0.0624,0.71213 0.20242,1.4916 0.31115,1.73215 l 0.19768,0.43736 -0.94101,-0.0267 -0.94101,-0.0267 -0.86214,0.63741 -0.86214,0.6374 -1.19187,0.0582 c -0.65553,0.032 -1.63836,0.24658 -2.18406,0.47681 l -0.99219,0.41861 v -0.53271 c 0,-0.72506 -0.0625,-0.70366 -2.01529,0.68982 -2.38886,1.70465 -2.283,1.41201 0.54936,-1.5186 l 2.45921,-2.54452 1.2893,-0.19242 1.28929,-0.19243 1.74816,-1.87179 1.74815,-1.8718 0.76539,0.55193 c 0.42096,0.30356 1.23604,1.03815 1.81127,1.63243 1.37408,1.41955 1.47304,1.39559 3.25241,-0.78753 l 1.52254,-1.86801 1.59412,-0.76293 1.59412,-0.76292 1.56379,-2.68011 c 1.47169,-2.52228 2.476,-3.69991 3.15501,-3.69951 l 0.29504,1.8e-4 v -0.90799 -0.90798 l 2.24897,-2.51186 c 2.72123,-3.03934 2.31599,-3.01253 3.57613,-0.23658 1.17223,2.5823 2.3106,4.00568 3.99135,4.99066 1.73459,1.01654 2.82388,2.4119 4.59542,5.88666 l 1.62464,3.18663 0.97758,0.58244 c 1.63473,0.97396 8.78279,8.80194 8.78279,9.6182 0,0.40128 -0.65459,0.004 -2.16407,-1.31205 z m 7.32752,-4.2864 c -0.10442,-0.97511 -0.29681,-2.05422 -0.42753,-2.39802 l -0.23766,-0.62511 -0.86007,0.0829 -0.86006,0.0829 -0.45213,0.90577 -0.45213,0.90577 -0.29047,-0.76399 -0.29046,-0.76399 0.17209,-1.607 0.1721,-1.607 -1.43713,-0.45301 c -0.79042,-0.24916 -1.87315,-0.45302 -2.40606,-0.45302 -1.17047,0 -1.16546,0.0531 -0.13871,-1.46821 l 0.83022,-1.23016 -0.42907,-0.89977 c -0.52526,-1.10149 -0.53079,-1.10159 -2.16044,-0.0398 l -1.3199,0.85993 -0.44893,0.926 c -0.58303,1.20259 -0.93261,1.58746 -1.44189,1.58746 h -0.41475 l 0.16666,-0.4343 0.16665,-0.4343 -0.46907,0.3556 c -0.258,0.19558 -0.7365,0.58992 -1.06335,0.87632 -1.07491,0.94187 -0.85242,0.31836 0.68002,-1.90564 l 1.50967,-2.19097 1.1172,-0.50018 1.1172,-0.50018 0.76487,-1.20609 0.76488,-1.20608 0.63734,0.86093 c 0.35054,0.47351 0.85669,1.21812 1.12478,1.65468 0.82968,1.35107 1.78078,2.21568 2.63893,2.39895 1.10152,0.23524 1.33127,0.44962 2.65432,2.47668 2.31644,3.54905 5.03207,5.9196 8.5583,7.47078 l 1.78093,0.78342 -1.15804,-0.15726 c -1.5148,-0.20571 -4.11221,-1.08057 -5.51619,-1.85797 l -1.11798,-0.61903 -0.45169,1.43295 c -0.5901,1.87201 -0.78248,1.80741 -1.01245,-0.33998 z"
       id="path3" /></g></svg>
